<mxfile host="app.diagrams.net" agent="Mozilla/5.0 (Windows NT 10.0; Win64; x64) AppleWebKit/537.36 (KHTML, like Gecko) Chrome/141.0.0.0 Safari/537.36" version="28.2.8">
  <diagram name="第 1 页" id="PH6gEFHtQObtW0aymPby">
    <mxGraphModel dx="868" dy="468" grid="0" gridSize="10" guides="1" tooltips="1" connect="1" arrows="1" fold="1" page="0" pageScale="1" pageWidth="827" pageHeight="1169" math="0" shadow="0">
      <root>
        <mxCell id="0" />
        <mxCell id="1" parent="0" />
        <mxCell id="jt_q1IcllzxEEoN-3Dmz-3" value="" style="edgeStyle=orthogonalEdgeStyle;rounded=0;orthogonalLoop=1;jettySize=auto;html=1;" edge="1" parent="1" source="jt_q1IcllzxEEoN-3Dmz-1" target="jt_q1IcllzxEEoN-3Dmz-2">
          <mxGeometry relative="1" as="geometry" />
        </mxCell>
        <mxCell id="jt_q1IcllzxEEoN-3Dmz-7" value="" style="edgeStyle=orthogonalEdgeStyle;rounded=0;orthogonalLoop=1;jettySize=auto;html=1;" edge="1" parent="1" source="jt_q1IcllzxEEoN-3Dmz-1" target="jt_q1IcllzxEEoN-3Dmz-6">
          <mxGeometry relative="1" as="geometry" />
        </mxCell>
        <mxCell id="jt_q1IcllzxEEoN-3Dmz-1" value="实指" style="rounded=0;whiteSpace=wrap;html=1;" vertex="1" parent="1">
          <mxGeometry x="150" y="160" width="120" height="60" as="geometry" />
        </mxCell>
        <mxCell id="jt_q1IcllzxEEoN-3Dmz-5" value="" style="edgeStyle=orthogonalEdgeStyle;rounded=0;orthogonalLoop=1;jettySize=auto;html=1;" edge="1" parent="1" source="jt_q1IcllzxEEoN-3Dmz-2" target="jt_q1IcllzxEEoN-3Dmz-4">
          <mxGeometry relative="1" as="geometry" />
        </mxCell>
        <mxCell id="jt_q1IcllzxEEoN-3Dmz-2" value="虚指" style="whiteSpace=wrap;html=1;rounded=0;" vertex="1" parent="1">
          <mxGeometry x="350" y="160" width="120" height="60" as="geometry" />
        </mxCell>
        <mxCell id="jt_q1IcllzxEEoN-3Dmz-4" value="虚指" style="whiteSpace=wrap;html=1;rounded=0;" vertex="1" parent="1">
          <mxGeometry x="550" y="160" width="120" height="60" as="geometry" />
        </mxCell>
        <mxCell id="jt_q1IcllzxEEoN-3Dmz-6" value="从来没有" style="ellipse;whiteSpace=wrap;html=1;rounded=0;" vertex="1" parent="1">
          <mxGeometry x="170" y="290" width="80" height="80" as="geometry" />
        </mxCell>
      </root>
    </mxGraphModel>
  </diagram>
</mxfile>
